<svg width="48" height="48" viewBox="0 0 48 48" fill="none" xmlns="http://www.w3.org/2000/svg">
<g clip-path="url(#clip0_26_69)">
<path d="M37.8855 16.887L26.8545 21.6937L27.669 22.5412L37.8855 16.887Z" fill="#B847BB"/>
<path d="M39.003 16.3995L26.349 29.8335L21.0765 24.2115L10.2315 28.9373L8.59275 29.8335L8.883 29.5253L2.832 32.1233C4.3545 34.9028 6.4335 37.3583 9 39.285V47.625L17.1352 43.2105C19.3574 43.82 21.6515 44.1278 23.9557 44.1255C37.0027 44.1255 47.6032 34.3313 47.6032 22.2503C47.6032 19.1385 46.7812 16.2368 45.5167 13.557L39.003 16.3995V16.3995Z" fill="#B847BB"/>
<path d="M23.7142 1C10.6672 1 0 10.7943 0 22.8752C0 29.7588 3.46425 35.8998 8.71425 39.91V48.25L16.8495 43.8355C19.0717 44.445 21.3657 44.7528 23.67 44.7505C36.717 44.7505 47.3175 34.9562 47.3175 22.8752C47.3175 10.7943 36.7612 1 23.7142 1ZM26.0632 30.4585L20.046 24.0415L8.307 30.4585L21.2205 16.75L27.3832 23.167L38.976 16.75L26.0632 30.4585Z" fill="#B847BB"/>
</g>
<defs>
<clipPath id="clip0_26_69">
<rect width="48" height="48" fill="white"/>
</clipPath>
</defs>
</svg>
