<svg width="50" height="50" viewBox="0 0 50 50" fill="none" xmlns="http://www.w3.org/2000/svg">
<g clip-path="url(#clip0_26_59)">
<path d="M39.6811 13.8039L39.675 13.8098C39.8058 14.1722 39.9277 14.5391 40.032 14.9133C39.9261 14.5386 39.8125 14.1672 39.6811 13.8039ZM25 3.48438L13.9516 8.06141L20.2994 14.4094C21.5401 13.1601 23.2263 12.4549 24.9869 12.4489C26.7476 12.4428 28.4386 13.1365 29.6878 14.3772C30.9371 15.6179 31.6423 17.3041 31.6483 19.0647C31.6544 20.8254 30.9607 22.5164 29.72 23.7656L39.0625 14.4219L39.675 13.8094C38.5885 10.7876 36.5962 8.17455 33.9699 6.32674C31.3436 4.47894 28.2112 3.48635 25 3.48438V3.48438Z" fill="#B847BB"/>
<path d="M25 25.7395C23.6874 25.7393 22.4044 25.3501 21.3129 24.6211C20.2214 23.8921 19.3704 22.856 18.8674 21.6436C18.3644 20.4313 18.232 19.097 18.4869 17.8095C18.7417 16.5219 19.3725 15.3387 20.2994 14.4094L13.9516 8.0614C12.4985 9.51061 11.3462 11.2327 10.5608 13.1287C9.77536 15.0247 9.37238 17.0572 9.375 19.1094C9.375 25.9933 12.9142 30.3075 17.0781 34.7344C17.3573 35.02 17.5897 35.3362 17.853 35.6322L29.6667 23.8183C28.4261 25.0502 26.7483 25.7409 25 25.7395V25.7395Z" fill="#B847BB"/>
<path d="M25 3.48438C20.856 3.48438 16.8817 5.13058 13.9515 8.06083C11.0212 10.9911 9.375 14.9654 9.375 19.1094C9.37183 20.9424 9.65946 22.7643 10.2272 24.5072L30.3061 4.42906C28.6058 3.80785 26.8102 3.48816 25 3.48438V3.48438Z" fill="#B847BB"/>
<path d="M26.408 45.5C27.8272 41.5511 29.963 37.8979 32.708 34.7241C37.1837 30.1764 40.625 25.9937 40.625 19.1094C40.6214 17.2993 40.3019 15.5037 39.6811 13.8034L17.853 35.6316C20.366 38.4881 22.2748 41.8237 23.4645 45.4375C23.5644 45.7454 23.7576 46.0145 24.0173 46.2076C24.277 46.4007 24.5905 46.5081 24.914 46.515C25.2376 46.5218 25.5553 46.4278 25.823 46.2459C26.0907 46.0641 26.2952 45.8033 26.408 45.5V45.5Z" fill="#B847BB"/>
<path opacity="0.5" d="M17.0781 34.7344C17.3573 35.02 17.5897 35.3362 17.853 35.6322C17.5891 35.3367 17.3567 35.0205 17.0781 34.7344ZM11.2609 11.662C10.7759 12.5549 10.3798 13.4932 10.0781 14.4634C10.3798 13.4932 10.776 12.5549 11.2609 11.662V11.662ZM10.0781 14.4634C9.76942 15.4564 9.56108 16.4778 9.45625 17.5123C9.5611 16.4778 9.76943 15.4564 10.0781 14.4634V14.4634Z" fill="#0066DA"/>
<path d="M23.7433 45.9358C23.7745 45.9745 23.8128 46.0017 23.847 46.0364C23.8125 46.0017 23.7744 45.9744 23.7433 45.9358ZM24.6678 46.4733L24.7303 46.4836L24.6678 46.4733ZM21.2838 40.5108C21.2258 40.4061 21.1777 40.2948 21.1183 40.1909C21.177 40.2953 21.2264 40.4062 21.2838 40.5108ZM23.4645 45.4375C23.1448 44.4962 22.7852 43.5813 22.3855 42.6928C22.7802 43.5839 23.1448 44.4955 23.4645 45.4375ZM24.2608 46.338C24.225 46.3205 24.1884 46.3056 24.1539 46.2851C24.1889 46.3056 24.2244 46.3206 24.2608 46.338ZM30.7995 37.1139C30.4105 37.6567 30.0684 38.2272 29.7172 38.7922C30.0673 38.2265 30.4114 37.6572 30.7995 37.1139Z" fill="white"/>
<path d="M26.6356 44.9594C27.0019 44.0354 27.3957 43.1277 27.817 42.2362C27.3931 43.1259 27.0019 44.0353 26.6356 44.9594ZM29.1875 39.6225C28.7377 40.397 28.3281 41.1956 27.9375 42.0041C28.3281 41.1948 28.7392 40.398 29.1875 39.6225Z" fill="white"/>
<path d="M13.9516 8.0614C12.4985 9.51061 11.3462 11.2327 10.5608 13.1287C9.77536 15.0247 9.37239 17.0572 9.375 19.1094C9.37183 20.9424 9.65946 22.7643 10.2272 24.5072L20.3125 14.4219L13.9516 8.0614Z" fill="#B847BB"/>
</g>
<defs>
<clipPath id="clip0_26_59">
<rect width="50" height="50" fill="white"/>
</clipPath>
</defs>
</svg>
