<svg width="26" height="25" viewBox="0 0 26 25" fill="none" xmlns="http://www.w3.org/2000/svg">
<path d="M23.3505 17.0483L19.8156 16.6447C18.9667 16.5473 18.1317 16.8395 17.5333 17.438L14.9726 19.9987C11.0341 17.9946 7.80536 14.7798 5.80133 10.8274L8.37596 8.25277C8.97438 7.65434 9.26664 6.81932 9.16922 5.97038L8.76563 2.46331C8.59863 1.05769 7.41569 0 5.99617 0H3.58854C2.01593 0 0.707743 1.3082 0.805161 2.88081C1.54276 14.7659 11.048 24.2573 22.9191 24.9949C24.4917 25.0923 25.7999 23.7841 25.7999 22.2115V19.8039C25.8138 18.3982 24.7561 17.2153 23.3505 17.0483Z" fill="#B847BB"/>
</svg>
