<svg width="404" height="409" viewBox="0 0 404 409" fill="none" xmlns="http://www.w3.org/2000/svg">
<g filter="url(#filter0_d_18_33)">
<circle cx="184" cy="184" r="180" fill="#656060"/>
</g>
<g filter="url(#filter1_d_18_33)">
<circle cx="306" cy="311" r="90" fill="white"/>
</g>
<path d="M112.787 111V91.2246H91.6934V111H85.6875C85.9023 109.828 86.0293 108.139 86.0684 105.932C86.1074 103.705 86.127 101.146 86.127 98.2559V80.9707C86.127 78.0801 86.1074 75.5312 86.0684 73.3242C86.0293 71.0977 85.9023 69.3984 85.6875 68.2266H91.6934V86.5371H112.787V68.2266H118.793C118.578 69.3984 118.451 71.0977 118.412 73.3242C118.373 75.5312 118.354 78.0801 118.354 80.9707V98.2559C118.354 101.146 118.373 103.705 118.412 105.932C118.451 108.139 118.578 109.828 118.793 111H112.787ZM132.445 96.2051C132.445 97.9043 132.65 99.4277 133.061 100.775C133.471 102.123 134.047 103.266 134.789 104.203C135.551 105.121 136.449 105.824 137.484 106.312C138.52 106.801 139.672 107.045 140.941 107.045C142.113 107.045 143.217 106.801 144.252 106.312C145.287 105.824 146.186 105.121 146.947 104.203C147.729 103.266 148.334 102.123 148.764 100.775C149.213 99.4277 149.438 97.9043 149.438 96.2051C149.438 94.4863 149.232 92.9531 148.822 91.6055C148.412 90.2383 147.826 89.0859 147.064 88.1484C146.322 87.1914 145.424 86.4688 144.369 85.9805C143.334 85.4727 142.191 85.2188 140.941 85.2188C139.75 85.2188 138.637 85.4727 137.602 85.9805C136.566 86.4688 135.668 87.1914 134.906 88.1484C134.145 89.0859 133.539 90.2383 133.09 91.6055C132.66 92.9531 132.445 94.4863 132.445 96.2051ZM127.025 96.2051C127.025 93.6855 127.406 91.459 128.168 89.5254C128.93 87.5723 129.955 85.9316 131.244 84.6035C132.533 83.2559 134.037 82.2402 135.756 81.5566C137.475 80.873 139.301 80.5312 141.234 80.5312C143.246 80.5312 145.082 80.873 146.742 81.5566C148.422 82.2402 149.857 83.2559 151.049 84.6035C152.26 85.9316 153.197 87.5723 153.861 89.5254C154.525 91.459 154.857 93.6855 154.857 96.2051C154.857 98.7246 154.477 100.951 153.715 102.885C152.953 104.818 151.928 106.439 150.639 107.748C149.35 109.057 147.846 110.053 146.127 110.736C144.408 111.4 142.582 111.732 140.648 111.732C138.637 111.732 136.791 111.4 135.111 110.736C133.451 110.053 132.016 109.057 130.805 107.748C129.613 106.439 128.686 104.818 128.021 102.885C127.357 100.951 127.025 98.7246 127.025 96.2051ZM185.326 111H179.906V94.3008C179.906 92.4844 179.838 91.0195 179.701 89.9062C179.564 88.7734 179.33 87.8945 178.998 87.2695C178.686 86.625 178.256 86.1953 177.709 85.9805C177.162 85.7656 176.479 85.6582 175.658 85.6582C174.936 85.6582 174.213 85.8047 173.49 86.0977C172.768 86.3906 172.074 86.8105 171.41 87.3574C170.766 87.8848 170.16 88.5195 169.594 89.2617C169.047 89.9844 168.578 90.7852 168.188 91.6641V111H162.768V92.9824C162.768 90.0918 162.602 87.6504 162.27 85.6582C161.938 83.6465 161.615 82.1328 161.303 81.1172H166.576C166.791 81.7422 166.977 82.4844 167.133 83.3438C167.289 84.1836 167.416 84.9551 167.514 85.6582C168.412 84.623 169.271 83.7734 170.092 83.1094C170.912 82.4453 171.723 81.9277 172.523 81.5566C173.344 81.166 174.154 80.9023 174.955 80.7656C175.756 80.6094 176.576 80.5312 177.416 80.5312C178.373 80.5312 179.242 80.668 180.023 80.9414C180.805 81.2148 181.488 81.5762 182.074 82.0254C182.68 82.4746 183.197 83.002 183.627 83.6074C184.057 84.1934 184.389 84.8086 184.623 85.4531C185.541 84.457 186.43 83.6465 187.289 83.0215C188.148 82.377 188.988 81.8789 189.809 81.5273C190.629 81.1562 191.43 80.9023 192.211 80.7656C193.012 80.6094 193.793 80.5312 194.555 80.5312C196.039 80.5312 197.289 80.7754 198.305 81.2637C199.32 81.7324 200.131 82.4355 200.736 83.373C201.361 84.3105 201.801 85.4727 202.055 86.8594C202.328 88.2461 202.465 89.8477 202.465 91.6641V111H197.045V94.8867C197.045 92.9922 196.977 91.4492 196.84 90.2578C196.703 89.0664 196.469 88.1289 196.137 87.4453C195.824 86.7617 195.395 86.293 194.848 86.0391C194.301 85.7852 193.617 85.6582 192.797 85.6582C192.074 85.6582 191.361 85.8047 190.658 86.0977C189.955 86.3711 189.271 86.7715 188.607 87.2988C187.963 87.8066 187.357 88.4316 186.791 89.1738C186.244 89.916 185.756 90.7461 185.326 91.6641V111ZM234.721 111H229.301V94.3008C229.301 92.4844 229.232 91.0195 229.096 89.9062C228.959 88.7734 228.725 87.8945 228.393 87.2695C228.08 86.625 227.65 86.1953 227.104 85.9805C226.557 85.7656 225.873 85.6582 225.053 85.6582C224.33 85.6582 223.607 85.8047 222.885 86.0977C222.162 86.3906 221.469 86.8105 220.805 87.3574C220.16 87.8848 219.555 88.5195 218.988 89.2617C218.441 89.9844 217.973 90.7852 217.582 91.6641V111H212.162V92.9824C212.162 90.0918 211.996 87.6504 211.664 85.6582C211.332 83.6465 211.01 82.1328 210.697 81.1172H215.971C216.186 81.7422 216.371 82.4844 216.527 83.3438C216.684 84.1836 216.811 84.9551 216.908 85.6582C217.807 84.623 218.666 83.7734 219.486 83.1094C220.307 82.4453 221.117 81.9277 221.918 81.5566C222.738 81.166 223.549 80.9023 224.35 80.7656C225.15 80.6094 225.971 80.5312 226.811 80.5312C227.768 80.5312 228.637 80.668 229.418 80.9414C230.199 81.2148 230.883 81.5762 231.469 82.0254C232.074 82.4746 232.592 83.002 233.021 83.6074C233.451 84.1934 233.783 84.8086 234.018 85.4531C234.936 84.457 235.824 83.6465 236.684 83.0215C237.543 82.377 238.383 81.8789 239.203 81.5273C240.023 81.1562 240.824 80.9023 241.605 80.7656C242.406 80.6094 243.188 80.5312 243.949 80.5312C245.434 80.5312 246.684 80.7754 247.699 81.2637C248.715 81.7324 249.525 82.4355 250.131 83.373C250.756 84.3105 251.195 85.4727 251.449 86.8594C251.723 88.2461 251.859 89.8477 251.859 91.6641V111H246.439V94.8867C246.439 92.9922 246.371 91.4492 246.234 90.2578C246.098 89.0664 245.863 88.1289 245.531 87.4453C245.219 86.7617 244.789 86.293 244.242 86.0391C243.695 85.7852 243.012 85.6582 242.191 85.6582C241.469 85.6582 240.756 85.8047 240.053 86.0977C239.35 86.3711 238.666 86.7715 238.002 87.2988C237.357 87.8066 236.752 88.4316 236.186 89.1738C235.639 89.916 235.15 90.7461 234.721 91.6641V111ZM264.633 96.791C264.691 98.5098 264.955 100.004 265.424 101.273C265.912 102.543 266.566 103.598 267.387 104.438C268.227 105.258 269.203 105.873 270.316 106.283C271.449 106.693 272.68 106.898 274.008 106.898C275.902 106.898 277.758 106.684 279.574 106.254C281.391 105.824 283.197 105.062 284.994 103.969L285.58 108.803C284.545 109.33 283.529 109.779 282.533 110.15C281.537 110.521 280.541 110.824 279.545 111.059C278.549 111.293 277.533 111.459 276.498 111.557C275.482 111.674 274.408 111.732 273.275 111.732C271.4 111.732 269.613 111.41 267.914 110.766C266.215 110.102 264.721 109.135 263.432 107.865C262.143 106.576 261.117 104.984 260.355 103.09C259.594 101.195 259.213 98.998 259.213 96.498C259.213 94.0762 259.535 91.8887 260.18 89.9355C260.844 87.9629 261.781 86.2832 262.992 84.8965C264.203 83.4902 265.678 82.416 267.416 81.6738C269.154 80.9121 271.107 80.5312 273.275 80.5312C274.877 80.5312 276.293 80.7266 277.523 81.1172C278.754 81.4883 279.818 82.0156 280.717 82.6992C281.615 83.3633 282.367 84.1445 282.973 85.043C283.578 85.9414 284.057 86.9082 284.408 87.9434C284.779 88.9785 285.043 90.0625 285.199 91.1953C285.355 92.3086 285.434 93.4121 285.434 94.5059V95.6484C285.434 96.1367 285.424 96.5176 285.404 96.791H264.633ZM272.836 84.9258C270.688 84.9258 268.93 85.5605 267.562 86.8301C266.195 88.0801 265.297 90.0332 264.867 92.6895H280.16C280.16 91.4395 279.975 90.3359 279.604 89.3789C279.252 88.4023 278.744 87.582 278.08 86.918C277.436 86.2539 276.664 85.7559 275.766 85.4238C274.867 85.0918 273.891 84.9258 272.836 84.9258Z" fill="white"/>
<path d="M125.564 145.352C125.125 145.107 124.718 144.904 124.344 144.741C123.978 144.57 123.619 144.432 123.27 144.326C122.92 144.212 122.57 144.131 122.22 144.082C121.87 144.033 121.5 144.009 121.109 144.009C120.621 144.009 120.173 144.082 119.766 144.229C119.367 144.375 119.021 144.57 118.729 144.814C118.436 145.059 118.208 145.339 118.045 145.657C117.89 145.974 117.813 146.3 117.813 146.633C117.813 146.967 117.858 147.272 117.947 147.549C118.045 147.817 118.236 148.074 118.521 148.318C118.806 148.554 119.213 148.79 119.742 149.026C120.271 149.254 120.971 149.494 121.841 149.746C122.647 149.982 123.359 150.259 123.978 150.576C124.604 150.885 125.129 151.243 125.552 151.65C125.975 152.057 126.297 152.521 126.517 153.042C126.736 153.563 126.846 154.153 126.846 154.812C126.846 155.634 126.683 156.383 126.358 157.058C126.041 157.725 125.601 158.303 125.04 158.792C124.486 159.272 123.839 159.646 123.099 159.915C122.358 160.175 121.573 160.305 120.743 160.305C120.157 160.305 119.583 160.264 119.021 160.183C118.468 160.102 117.943 159.988 117.447 159.841C116.958 159.695 116.507 159.524 116.092 159.329C115.677 159.125 115.315 158.901 115.005 158.657L115.555 156.155C116.368 156.863 117.207 157.375 118.069 157.693C118.94 158.01 119.831 158.169 120.743 158.169C121.231 158.169 121.703 158.1 122.159 157.961C122.614 157.823 123.017 157.624 123.367 157.363C123.717 157.095 123.998 156.769 124.209 156.387C124.421 155.996 124.527 155.553 124.527 155.056C124.527 154.739 124.474 154.438 124.368 154.153C124.271 153.86 124.067 153.575 123.758 153.298C123.449 153.022 123.005 152.749 122.427 152.48C121.849 152.204 121.084 151.923 120.132 151.638C119.18 151.353 118.403 151.04 117.801 150.698C117.199 150.356 116.727 149.986 116.385 149.587C116.043 149.181 115.807 148.749 115.677 148.293C115.555 147.83 115.494 147.337 115.494 146.816C115.494 146.296 115.599 145.746 115.811 145.168C116.031 144.591 116.373 144.058 116.836 143.569C117.3 143.081 117.894 142.678 118.619 142.361C119.343 142.035 120.214 141.873 121.231 141.873C121.703 141.873 122.142 141.893 122.549 141.934C122.964 141.974 123.363 142.039 123.746 142.129C124.136 142.218 124.519 142.332 124.893 142.471C125.267 142.609 125.654 142.776 126.053 142.971L125.564 145.352ZM138.638 160V153.286C138.638 152.521 138.585 151.89 138.479 151.394C138.382 150.898 138.231 150.507 138.028 150.222C137.824 149.929 137.568 149.726 137.259 149.612C136.958 149.498 136.604 149.441 136.197 149.441C135.757 149.441 135.326 149.547 134.903 149.758C134.488 149.962 134.105 150.23 133.755 150.564C133.405 150.889 133.096 151.26 132.828 151.675C132.559 152.09 132.36 152.505 132.229 152.92V160H129.971V146.206C129.971 144.888 129.963 143.736 129.947 142.751C129.931 141.759 129.878 140.998 129.788 140.469H132.229V149.868C132.832 149.014 133.54 148.375 134.354 147.952C135.167 147.52 136.006 147.305 136.868 147.305C138.17 147.305 139.167 147.732 139.859 148.586C140.551 149.433 140.896 150.694 140.896 152.371V160H138.638ZM152.627 149.502C152.424 149.461 152.127 149.412 151.736 149.355C151.354 149.29 150.857 149.258 150.247 149.258C149.45 149.258 148.782 149.421 148.245 149.746C147.716 150.063 147.293 150.491 146.976 151.028C146.658 151.557 146.43 152.167 146.292 152.859C146.162 153.551 146.097 154.263 146.097 154.995C146.097 155.467 146.141 155.903 146.231 156.301C146.329 156.692 146.459 157.034 146.622 157.327C146.784 157.611 146.972 157.835 147.183 157.998C147.395 158.153 147.623 158.23 147.867 158.23C148.135 158.23 148.408 158.14 148.685 157.961C148.969 157.782 149.246 157.542 149.515 157.241C149.791 156.932 150.06 156.578 150.32 156.179C150.581 155.78 150.825 155.361 151.053 154.922C151.281 154.474 151.492 154.023 151.688 153.567C151.883 153.111 152.05 152.68 152.188 152.273C152.326 151.858 152.432 151.479 152.505 151.138C152.587 150.796 152.627 150.515 152.627 150.295V149.502ZM153.543 160C153.453 159.805 153.372 159.512 153.299 159.121C153.234 158.73 153.177 158.311 153.128 157.864C153.087 157.408 153.055 156.965 153.03 156.533C153.006 156.102 152.994 155.752 152.994 155.483V154.263C152.733 154.954 152.42 155.658 152.054 156.375C151.696 157.091 151.285 157.742 150.821 158.328C150.357 158.905 149.844 159.382 149.283 159.756C148.729 160.122 148.135 160.305 147.5 160.305C146.988 160.305 146.508 160.191 146.06 159.963C145.612 159.736 145.222 159.398 144.888 158.95C144.563 158.503 144.306 157.949 144.119 157.29C143.932 156.623 143.838 155.858 143.838 154.995C143.838 154.027 143.969 153.083 144.229 152.163C144.489 151.235 144.888 150.413 145.425 149.697C145.962 148.973 146.646 148.395 147.476 147.964C148.306 147.524 149.291 147.305 150.43 147.305C151.22 147.305 152.005 147.358 152.786 147.463C153.567 147.561 154.267 147.691 154.886 147.854V153.53C154.886 155.068 154.959 156.362 155.105 157.412C155.252 158.454 155.443 159.316 155.679 160H153.543ZM168.13 160H165.872V153.042C165.872 152.285 165.844 151.675 165.787 151.211C165.73 150.739 165.632 150.373 165.494 150.112C165.363 149.844 165.184 149.665 164.957 149.575C164.729 149.486 164.444 149.441 164.102 149.441C163.801 149.441 163.5 149.502 163.199 149.624C162.898 149.746 162.609 149.921 162.332 150.149C162.063 150.369 161.811 150.633 161.575 150.942C161.347 151.243 161.152 151.577 160.989 151.943V160H158.731V152.493C158.731 151.288 158.662 150.271 158.523 149.441C158.385 148.603 158.251 147.972 158.121 147.549H160.318C160.407 147.809 160.485 148.118 160.55 148.477C160.615 148.826 160.668 149.148 160.708 149.441C161.083 149.01 161.441 148.656 161.783 148.379C162.125 148.102 162.462 147.887 162.796 147.732C163.138 147.569 163.475 147.459 163.809 147.402C164.143 147.337 164.485 147.305 164.834 147.305C165.233 147.305 165.595 147.362 165.921 147.476C166.246 147.59 166.531 147.74 166.775 147.927C167.028 148.114 167.243 148.334 167.422 148.586C167.601 148.831 167.74 149.087 167.837 149.355C168.22 148.94 168.59 148.603 168.948 148.342C169.306 148.074 169.656 147.866 169.998 147.72C170.34 147.565 170.674 147.459 170.999 147.402C171.333 147.337 171.658 147.305 171.976 147.305C172.594 147.305 173.115 147.406 173.538 147.61C173.961 147.805 174.299 148.098 174.551 148.489C174.812 148.879 174.995 149.364 175.101 149.941C175.215 150.519 175.271 151.187 175.271 151.943V160H173.013V153.286C173.013 152.497 172.985 151.854 172.928 151.357C172.871 150.861 172.773 150.47 172.635 150.186C172.505 149.901 172.326 149.705 172.098 149.6C171.87 149.494 171.585 149.441 171.243 149.441C170.942 149.441 170.645 149.502 170.352 149.624C170.059 149.738 169.774 149.905 169.498 150.125C169.229 150.336 168.977 150.597 168.741 150.906C168.513 151.215 168.309 151.561 168.13 151.943V160ZM181.326 156.826C181.741 157.119 182.099 157.363 182.4 157.559C182.71 157.746 182.99 157.896 183.243 158.01C183.495 158.116 183.735 158.189 183.963 158.23C184.199 158.271 184.459 158.291 184.744 158.291C185.175 158.291 185.586 158.189 185.977 157.986C186.376 157.782 186.726 157.489 187.027 157.107C187.336 156.716 187.58 156.248 187.759 155.703C187.946 155.15 188.04 154.527 188.04 153.835C188.04 153.16 187.975 152.55 187.845 152.004C187.723 151.451 187.54 150.983 187.295 150.601C187.051 150.21 186.754 149.909 186.404 149.697C186.062 149.486 185.672 149.38 185.232 149.38C184.882 149.38 184.524 149.457 184.158 149.612C183.792 149.766 183.434 149.994 183.084 150.295C182.742 150.597 182.421 150.975 182.12 151.431C181.819 151.878 181.554 152.395 181.326 152.981V156.826ZM180.655 147.549C180.744 147.76 180.834 148.062 180.923 148.452C181.013 148.835 181.086 149.307 181.143 149.868C181.428 149.494 181.737 149.148 182.071 148.831C182.413 148.513 182.771 148.245 183.145 148.025C183.528 147.797 183.926 147.622 184.341 147.5C184.764 147.37 185.204 147.305 185.66 147.305C186.351 147.305 186.982 147.459 187.552 147.769C188.13 148.07 188.618 148.497 189.017 149.05C189.424 149.596 189.737 150.247 189.957 151.003C190.184 151.752 190.298 152.574 190.298 153.469C190.298 154.511 190.152 155.455 189.859 156.301C189.566 157.139 189.167 157.856 188.663 158.45C188.166 159.044 187.58 159.504 186.905 159.829C186.229 160.146 185.509 160.305 184.744 160.305C184.419 160.305 184.109 160.273 183.816 160.208C183.532 160.142 183.251 160.053 182.974 159.939C182.706 159.825 182.437 159.687 182.168 159.524C181.9 159.353 181.619 159.166 181.326 158.962V161.831C181.326 162.319 181.33 162.759 181.338 163.149C181.355 163.548 181.375 163.914 181.399 164.248C181.424 164.582 181.456 164.887 181.497 165.164C181.538 165.448 181.583 165.721 181.631 165.981H179.068V154.08C179.068 153.323 179.06 152.623 179.043 151.98C179.035 151.329 179.011 150.735 178.97 150.198C178.93 149.653 178.868 149.16 178.787 148.721C178.706 148.281 178.596 147.891 178.458 147.549H180.655ZM194.876 153.835C194.876 154.543 194.961 155.178 195.132 155.74C195.303 156.301 195.543 156.777 195.853 157.168C196.17 157.55 196.544 157.843 196.976 158.047C197.407 158.25 197.887 158.352 198.416 158.352C198.904 158.352 199.364 158.25 199.795 158.047C200.227 157.843 200.601 157.55 200.918 157.168C201.244 156.777 201.496 156.301 201.675 155.74C201.862 155.178 201.956 154.543 201.956 153.835C201.956 153.119 201.871 152.48 201.7 151.919C201.529 151.349 201.285 150.869 200.967 150.479C200.658 150.08 200.284 149.779 199.844 149.575C199.413 149.364 198.937 149.258 198.416 149.258C197.92 149.258 197.456 149.364 197.024 149.575C196.593 149.779 196.219 150.08 195.901 150.479C195.584 150.869 195.332 151.349 195.145 151.919C194.965 152.48 194.876 153.119 194.876 153.835ZM192.618 153.835C192.618 152.786 192.776 151.858 193.094 151.052C193.411 150.238 193.838 149.555 194.375 149.001C194.913 148.44 195.539 148.017 196.255 147.732C196.972 147.447 197.732 147.305 198.538 147.305C199.376 147.305 200.141 147.447 200.833 147.732C201.533 148.017 202.131 148.44 202.627 149.001C203.132 149.555 203.523 150.238 203.799 151.052C204.076 151.858 204.214 152.786 204.214 153.835C204.214 154.885 204.056 155.813 203.738 156.619C203.421 157.424 202.994 158.1 202.457 158.645C201.919 159.19 201.293 159.605 200.577 159.89C199.861 160.167 199.1 160.305 198.294 160.305C197.456 160.305 196.687 160.167 195.987 159.89C195.295 159.605 194.697 159.19 194.192 158.645C193.696 158.1 193.309 157.424 193.033 156.619C192.756 155.813 192.618 154.885 192.618 153.835ZM207.266 143.582C207.266 143.354 207.303 143.142 207.376 142.947C207.449 142.743 207.551 142.568 207.681 142.422C207.819 142.267 207.982 142.149 208.169 142.068C208.357 141.978 208.564 141.934 208.792 141.934C209.02 141.934 209.231 141.978 209.427 142.068C209.622 142.149 209.789 142.267 209.927 142.422C210.066 142.568 210.175 142.743 210.257 142.947C210.338 143.142 210.379 143.354 210.379 143.582C210.379 143.809 210.338 144.025 210.257 144.229C210.175 144.424 210.066 144.599 209.927 144.753C209.789 144.9 209.622 145.018 209.427 145.107C209.231 145.189 209.02 145.229 208.792 145.229C208.564 145.229 208.357 145.189 208.169 145.107C207.982 145.018 207.819 144.9 207.681 144.753C207.551 144.599 207.449 144.424 207.376 144.229C207.303 144.025 207.266 143.809 207.266 143.582ZM209.952 154.202C209.952 154.592 209.956 155.056 209.964 155.593C209.98 156.122 209.996 156.659 210.013 157.205C210.037 157.75 210.062 158.271 210.086 158.767C210.118 159.264 210.155 159.674 210.196 160H207.693V153.53C207.693 152.936 207.689 152.35 207.681 151.772C207.681 151.195 207.673 150.649 207.657 150.137C207.649 149.616 207.632 149.136 207.608 148.696C207.583 148.249 207.551 147.866 207.51 147.549H209.952V154.202ZM222.842 160V153.286C222.842 152.521 222.789 151.89 222.684 151.394C222.586 150.898 222.435 150.507 222.232 150.222C222.037 149.929 221.784 149.726 221.475 149.612C221.174 149.498 220.816 149.441 220.401 149.441C219.961 149.441 219.53 149.547 219.107 149.758C218.692 149.962 218.309 150.23 217.959 150.564C217.61 150.889 217.3 151.26 217.032 151.675C216.763 152.09 216.564 152.505 216.434 152.92V160H214.175V152.493C214.175 151.288 214.106 150.271 213.968 149.441C213.838 148.603 213.703 147.972 213.565 147.549H215.762C215.811 147.679 215.86 147.85 215.909 148.062C215.958 148.265 216.002 148.481 216.043 148.708C216.084 148.936 216.12 149.16 216.153 149.38L216.25 149.929C217.024 149.001 217.805 148.334 218.594 147.927C219.384 147.512 220.21 147.305 221.072 147.305C222.374 147.305 223.371 147.732 224.063 148.586C224.755 149.433 225.101 150.694 225.101 152.371V160H222.842ZM236.587 149.868C236.392 149.795 236.185 149.73 235.965 149.673C235.745 149.608 235.521 149.555 235.293 149.514C235.066 149.473 234.842 149.441 234.622 149.417C234.41 149.392 234.211 149.38 234.024 149.38C233.357 149.38 232.787 149.518 232.315 149.795C231.843 150.063 231.456 150.422 231.155 150.869C230.862 151.309 230.647 151.809 230.508 152.371C230.37 152.932 230.301 153.502 230.301 154.08C230.301 154.836 230.358 155.467 230.472 155.972C230.594 156.468 230.757 156.867 230.96 157.168C231.172 157.461 231.416 157.673 231.692 157.803C231.977 157.925 232.286 157.986 232.62 157.986C232.929 157.986 233.259 157.925 233.609 157.803C233.959 157.673 234.309 157.489 234.659 157.253C235.017 157.017 235.359 156.724 235.684 156.375C236.018 156.025 236.319 155.626 236.587 155.178V149.868ZM238.846 159.695C238.846 160.769 238.687 161.689 238.37 162.454C238.06 163.219 237.649 163.841 237.137 164.321C236.632 164.81 236.054 165.168 235.403 165.396C234.752 165.623 234.089 165.737 233.414 165.737C232.632 165.737 231.855 165.603 231.082 165.334C230.317 165.066 229.609 164.712 228.958 164.272L229.751 162.38C230.329 162.795 230.911 163.133 231.497 163.394C232.083 163.654 232.681 163.784 233.292 163.784C233.609 163.784 233.959 163.727 234.341 163.613C234.724 163.499 235.082 163.3 235.416 163.015C235.749 162.738 236.026 162.364 236.246 161.892C236.473 161.42 236.587 160.83 236.587 160.122V157.864C236.27 158.263 235.932 158.604 235.574 158.889C235.224 159.166 234.866 159.394 234.5 159.573C234.142 159.744 233.78 159.87 233.414 159.951C233.056 160.024 232.71 160.061 232.376 160.061C231.814 160.061 231.273 159.963 230.752 159.768C230.232 159.573 229.768 159.264 229.361 158.84C228.962 158.409 228.641 157.852 228.396 157.168C228.16 156.484 228.042 155.658 228.042 154.69C228.042 153.754 228.165 152.843 228.409 151.956C228.653 151.069 229.031 150.283 229.544 149.6C230.057 148.908 230.712 148.354 231.509 147.939C232.315 147.516 233.275 147.305 234.39 147.305C234.756 147.305 235.131 147.333 235.513 147.39C235.904 147.439 236.29 147.508 236.673 147.598C237.055 147.687 237.43 147.789 237.796 147.903C238.162 148.009 238.512 148.114 238.846 148.22V159.695ZM242.764 158.169C242.805 157.974 242.878 157.803 242.984 157.656C243.098 157.502 243.232 157.375 243.387 157.278C243.541 157.172 243.708 157.091 243.887 157.034C244.066 156.977 244.241 156.948 244.412 156.948C244.656 156.948 244.884 156.997 245.096 157.095C245.315 157.184 245.503 157.319 245.657 157.498C245.82 157.668 245.946 157.88 246.036 158.132C246.133 158.376 246.182 158.653 246.182 158.962C246.182 159.711 246.003 160.452 245.645 161.184C245.295 161.917 244.762 162.62 244.046 163.296L242.825 162.808C243.004 162.629 243.187 162.409 243.375 162.148C243.57 161.888 243.749 161.603 243.912 161.294C244.074 160.993 244.209 160.675 244.314 160.342C244.42 160.016 244.473 159.699 244.473 159.39H242.764V158.169ZM108.548 198.291C108.19 198.625 107.771 198.918 107.291 199.17C106.81 199.414 106.306 199.622 105.777 199.792C105.256 199.963 104.727 200.09 104.19 200.171C103.653 200.26 103.152 200.305 102.688 200.305C101.451 200.305 100.341 200.098 99.356 199.683C98.3713 199.259 97.533 198.661 96.8413 197.888C96.1496 197.107 95.6165 196.163 95.2422 195.056C94.876 193.949 94.6929 192.708 94.6929 191.333C94.6929 189.762 94.9207 188.387 95.3765 187.207C95.8322 186.019 96.4385 185.03 97.1953 184.241C97.9603 183.451 98.8392 182.861 99.832 182.471C100.825 182.072 101.858 181.873 102.933 181.873C103.372 181.873 103.82 181.901 104.275 181.958C104.731 182.015 105.187 182.109 105.643 182.239C106.106 182.369 106.566 182.544 107.022 182.764C107.478 182.983 107.925 183.256 108.365 183.582L107.632 185.779C107.25 185.437 106.859 185.148 106.46 184.912C106.062 184.676 105.663 184.489 105.264 184.351C104.865 184.204 104.467 184.102 104.068 184.045C103.677 183.98 103.299 183.948 102.933 183.948C102.078 183.948 101.293 184.098 100.577 184.399C99.8605 184.692 99.242 185.136 98.7212 185.73C98.2085 186.324 97.8057 187.065 97.5127 187.952C97.2197 188.831 97.0732 189.856 97.0732 191.028C97.0732 192.126 97.2157 193.115 97.5005 193.994C97.7935 194.873 98.1922 195.622 98.6968 196.24C99.2095 196.859 99.8158 197.335 100.516 197.668C101.215 198.002 101.98 198.169 102.811 198.169C103.274 198.169 103.742 198.116 104.214 198.01C104.694 197.904 105.162 197.754 105.618 197.559C106.074 197.355 106.509 197.115 106.924 196.838C107.339 196.562 107.718 196.252 108.06 195.911L108.548 198.291ZM113.504 193.835C113.504 194.543 113.589 195.178 113.76 195.74C113.931 196.301 114.171 196.777 114.48 197.168C114.798 197.55 115.172 197.843 115.604 198.047C116.035 198.25 116.515 198.352 117.044 198.352C117.532 198.352 117.992 198.25 118.423 198.047C118.855 197.843 119.229 197.55 119.546 197.168C119.872 196.777 120.124 196.301 120.303 195.74C120.49 195.178 120.584 194.543 120.584 193.835C120.584 193.119 120.499 192.48 120.328 191.919C120.157 191.349 119.913 190.869 119.595 190.479C119.286 190.08 118.912 189.779 118.472 189.575C118.041 189.364 117.565 189.258 117.044 189.258C116.548 189.258 116.084 189.364 115.652 189.575C115.221 189.779 114.847 190.08 114.529 190.479C114.212 190.869 113.96 191.349 113.772 191.919C113.593 192.48 113.504 193.119 113.504 193.835ZM111.246 193.835C111.246 192.786 111.404 191.858 111.722 191.052C112.039 190.238 112.466 189.555 113.003 189.001C113.541 188.44 114.167 188.017 114.883 187.732C115.599 187.447 116.36 187.305 117.166 187.305C118.004 187.305 118.769 187.447 119.461 187.732C120.161 188.017 120.759 188.44 121.255 189.001C121.76 189.555 122.151 190.238 122.427 191.052C122.704 191.858 122.842 192.786 122.842 193.835C122.842 194.885 122.684 195.813 122.366 196.619C122.049 197.424 121.622 198.1 121.084 198.645C120.547 199.19 119.921 199.605 119.205 199.89C118.488 200.167 117.728 200.305 116.922 200.305C116.084 200.305 115.315 200.167 114.615 199.89C113.923 199.605 113.325 199.19 112.82 198.645C112.324 198.1 111.937 197.424 111.661 196.619C111.384 195.813 111.246 194.885 111.246 193.835ZM135.232 200C135.175 199.862 135.114 199.699 135.049 199.512C134.984 199.325 134.919 199.125 134.854 198.914C134.797 198.702 134.74 198.482 134.683 198.254C134.634 198.018 134.594 197.786 134.561 197.559C133.82 198.462 133.056 199.146 132.266 199.609C131.485 200.073 130.663 200.305 129.8 200.305C127.196 200.305 125.894 198.556 125.894 195.056V191.455C125.894 191.064 125.89 190.71 125.882 190.393C125.882 190.076 125.874 189.771 125.857 189.478C125.841 189.176 125.817 188.871 125.784 188.562C125.752 188.253 125.707 187.915 125.65 187.549H128.152V194.324C128.152 195.015 128.185 195.614 128.25 196.118C128.323 196.615 128.441 197.026 128.604 197.351C128.767 197.668 128.978 197.904 129.239 198.059C129.507 198.214 129.837 198.291 130.228 198.291C130.586 198.291 130.968 198.185 131.375 197.974C131.782 197.754 132.168 197.477 132.535 197.144C132.909 196.81 133.247 196.444 133.548 196.045C133.857 195.638 134.093 195.247 134.256 194.873V191.455C134.256 191.056 134.252 190.698 134.244 190.381C134.244 190.055 134.236 189.746 134.219 189.453C134.203 189.16 134.179 188.863 134.146 188.562C134.113 188.261 134.069 187.923 134.012 187.549H136.514V194.507C136.514 195.695 136.579 196.737 136.709 197.632C136.848 198.519 137.047 199.308 137.308 200H135.232ZM142.63 196.826C143.045 197.119 143.403 197.363 143.704 197.559C144.013 197.746 144.294 197.896 144.546 198.01C144.799 198.116 145.039 198.189 145.267 198.23C145.503 198.271 145.763 198.291 146.048 198.291C146.479 198.291 146.89 198.189 147.281 197.986C147.68 197.782 148.029 197.489 148.331 197.107C148.64 196.716 148.884 196.248 149.063 195.703C149.25 195.15 149.344 194.527 149.344 193.835C149.344 193.16 149.279 192.55 149.148 192.004C149.026 191.451 148.843 190.983 148.599 190.601C148.355 190.21 148.058 189.909 147.708 189.697C147.366 189.486 146.976 189.38 146.536 189.38C146.186 189.38 145.828 189.457 145.462 189.612C145.096 189.766 144.738 189.994 144.388 190.295C144.046 190.597 143.724 190.975 143.423 191.431C143.122 191.878 142.858 192.395 142.63 192.981V196.826ZM141.958 187.549C142.048 187.76 142.138 188.062 142.227 188.452C142.317 188.835 142.39 189.307 142.447 189.868C142.732 189.494 143.041 189.148 143.375 188.831C143.716 188.513 144.074 188.245 144.449 188.025C144.831 187.797 145.23 187.622 145.645 187.5C146.068 187.37 146.508 187.305 146.963 187.305C147.655 187.305 148.286 187.459 148.855 187.769C149.433 188.07 149.922 188.497 150.32 189.05C150.727 189.596 151.041 190.247 151.26 191.003C151.488 191.752 151.602 192.574 151.602 193.469C151.602 194.511 151.456 195.455 151.163 196.301C150.87 197.139 150.471 197.856 149.966 198.45C149.47 199.044 148.884 199.504 148.208 199.829C147.533 200.146 146.813 200.305 146.048 200.305C145.722 200.305 145.413 200.273 145.12 200.208C144.835 200.142 144.555 200.053 144.278 199.939C144.009 199.825 143.741 199.687 143.472 199.524C143.204 199.353 142.923 199.166 142.63 198.962V201.831C142.63 202.319 142.634 202.759 142.642 203.149C142.658 203.548 142.679 203.914 142.703 204.248C142.728 204.582 142.76 204.887 142.801 205.164C142.841 205.448 142.886 205.721 142.935 205.981H140.372V194.08C140.372 193.323 140.363 192.623 140.347 191.98C140.339 191.329 140.315 190.735 140.274 190.198C140.233 189.653 140.172 189.16 140.091 188.721C140.009 188.281 139.9 187.891 139.761 187.549H141.958ZM156.18 194.08C156.204 194.796 156.314 195.418 156.509 195.947C156.713 196.476 156.985 196.916 157.327 197.266C157.677 197.607 158.084 197.864 158.548 198.035C159.02 198.206 159.533 198.291 160.086 198.291C160.875 198.291 161.648 198.201 162.405 198.022C163.162 197.843 163.915 197.526 164.664 197.07L164.908 199.084C164.476 199.304 164.053 199.491 163.638 199.646C163.223 199.801 162.808 199.927 162.393 200.024C161.978 200.122 161.555 200.191 161.124 200.232C160.7 200.281 160.253 200.305 159.781 200.305C159 200.305 158.255 200.171 157.547 199.902C156.839 199.626 156.216 199.223 155.679 198.694C155.142 198.157 154.715 197.493 154.397 196.704C154.08 195.915 153.921 194.999 153.921 193.958C153.921 192.948 154.056 192.037 154.324 191.223C154.601 190.401 154.992 189.701 155.496 189.124C156.001 188.538 156.615 188.09 157.339 187.781C158.064 187.463 158.877 187.305 159.781 187.305C160.448 187.305 161.038 187.386 161.551 187.549C162.063 187.703 162.507 187.923 162.881 188.208C163.256 188.485 163.569 188.81 163.821 189.185C164.074 189.559 164.273 189.962 164.419 190.393C164.574 190.824 164.684 191.276 164.749 191.748C164.814 192.212 164.847 192.672 164.847 193.127V193.604C164.847 193.807 164.843 193.966 164.834 194.08H156.18ZM159.598 189.136C158.702 189.136 157.97 189.4 157.4 189.929C156.831 190.45 156.456 191.264 156.277 192.371H162.649C162.649 191.85 162.572 191.39 162.417 190.991C162.271 190.584 162.059 190.243 161.783 189.966C161.514 189.689 161.193 189.482 160.818 189.343C160.444 189.205 160.037 189.136 159.598 189.136ZM168.399 198.169C168.44 197.974 168.513 197.803 168.619 197.656C168.733 197.502 168.867 197.375 169.021 197.278C169.176 197.172 169.343 197.091 169.522 197.034C169.701 196.977 169.876 196.948 170.047 196.948C170.291 196.948 170.519 196.997 170.73 197.095C170.95 197.184 171.137 197.319 171.292 197.498C171.455 197.668 171.581 197.88 171.67 198.132C171.768 198.376 171.817 198.653 171.817 198.962C171.817 199.711 171.638 200.452 171.28 201.184C170.93 201.917 170.397 202.62 169.681 203.296L168.46 202.808C168.639 202.629 168.822 202.409 169.009 202.148C169.205 201.888 169.384 201.603 169.546 201.294C169.709 200.993 169.843 200.675 169.949 200.342C170.055 200.016 170.108 199.699 170.108 199.39H168.399V198.169ZM195.804 198.291C195.446 198.625 195.027 198.918 194.546 199.17C194.066 199.414 193.562 199.622 193.033 199.792C192.512 199.963 191.983 200.09 191.446 200.171C190.909 200.26 190.408 200.305 189.944 200.305C188.707 200.305 187.597 200.098 186.612 199.683C185.627 199.259 184.789 198.661 184.097 197.888C183.405 197.107 182.872 196.163 182.498 195.056C182.132 193.949 181.949 192.708 181.949 191.333C181.949 189.762 182.177 188.387 182.632 187.207C183.088 186.019 183.694 185.03 184.451 184.241C185.216 183.451 186.095 182.861 187.088 182.471C188.081 182.072 189.114 181.873 190.188 181.873C190.628 181.873 191.076 181.901 191.531 181.958C191.987 182.015 192.443 182.109 192.898 182.239C193.362 182.369 193.822 182.544 194.278 182.764C194.734 182.983 195.181 183.256 195.621 183.582L194.888 185.779C194.506 185.437 194.115 185.148 193.716 184.912C193.318 184.676 192.919 184.489 192.52 184.351C192.121 184.204 191.722 184.102 191.324 184.045C190.933 183.98 190.555 183.948 190.188 183.948C189.334 183.948 188.549 184.098 187.833 184.399C187.116 184.692 186.498 185.136 185.977 185.73C185.464 186.324 185.062 187.065 184.769 187.952C184.476 188.831 184.329 189.856 184.329 191.028C184.329 192.126 184.472 193.115 184.756 193.994C185.049 194.873 185.448 195.622 185.953 196.24C186.465 196.859 187.072 197.335 187.771 197.668C188.471 198.002 189.236 198.169 190.066 198.169C190.53 198.169 190.998 198.116 191.47 198.01C191.95 197.904 192.418 197.754 192.874 197.559C193.33 197.355 193.765 197.115 194.18 196.838C194.595 196.562 194.974 196.252 195.315 195.911L195.804 198.291ZM200.76 193.835C200.76 194.543 200.845 195.178 201.016 195.74C201.187 196.301 201.427 196.777 201.736 197.168C202.054 197.55 202.428 197.843 202.859 198.047C203.291 198.25 203.771 198.352 204.3 198.352C204.788 198.352 205.248 198.25 205.679 198.047C206.111 197.843 206.485 197.55 206.802 197.168C207.128 196.777 207.38 196.301 207.559 195.74C207.746 195.178 207.84 194.543 207.84 193.835C207.84 193.119 207.754 192.48 207.583 191.919C207.413 191.349 207.168 190.869 206.851 190.479C206.542 190.08 206.167 189.779 205.728 189.575C205.297 189.364 204.821 189.258 204.3 189.258C203.803 189.258 203.34 189.364 202.908 189.575C202.477 189.779 202.103 190.08 201.785 190.479C201.468 190.869 201.215 191.349 201.028 191.919C200.849 192.48 200.76 193.119 200.76 193.835ZM198.501 193.835C198.501 192.786 198.66 191.858 198.978 191.052C199.295 190.238 199.722 189.555 200.259 189.001C200.796 188.44 201.423 188.017 202.139 187.732C202.855 187.447 203.616 187.305 204.422 187.305C205.26 187.305 206.025 187.447 206.717 187.732C207.417 188.017 208.015 188.44 208.511 189.001C209.016 189.555 209.406 190.238 209.683 191.052C209.96 191.858 210.098 192.786 210.098 193.835C210.098 194.885 209.939 195.813 209.622 196.619C209.305 197.424 208.877 198.1 208.34 198.645C207.803 199.19 207.177 199.605 206.46 199.89C205.744 200.167 204.983 200.305 204.178 200.305C203.34 200.305 202.57 200.167 201.871 199.89C201.179 199.605 200.581 199.19 200.076 198.645C199.58 198.1 199.193 197.424 198.917 196.619C198.64 195.813 198.501 194.885 198.501 193.835ZM213.15 183.582C213.15 183.354 213.187 183.142 213.26 182.947C213.333 182.743 213.435 182.568 213.565 182.422C213.703 182.267 213.866 182.149 214.053 182.068C214.24 181.978 214.448 181.934 214.676 181.934C214.904 181.934 215.115 181.978 215.311 182.068C215.506 182.149 215.673 182.267 215.811 182.422C215.949 182.568 216.059 182.743 216.141 182.947C216.222 183.142 216.263 183.354 216.263 183.582C216.263 183.809 216.222 184.025 216.141 184.229C216.059 184.424 215.949 184.599 215.811 184.753C215.673 184.9 215.506 185.018 215.311 185.107C215.115 185.189 214.904 185.229 214.676 185.229C214.448 185.229 214.24 185.189 214.053 185.107C213.866 185.018 213.703 184.9 213.565 184.753C213.435 184.599 213.333 184.424 213.26 184.229C213.187 184.025 213.15 183.809 213.15 183.582ZM215.835 194.202C215.835 194.592 215.84 195.056 215.848 195.593C215.864 196.122 215.88 196.659 215.896 197.205C215.921 197.75 215.945 198.271 215.97 198.767C216.002 199.264 216.039 199.674 216.08 200H213.577V193.53C213.577 192.936 213.573 192.35 213.565 191.772C213.565 191.195 213.557 190.649 213.541 190.137C213.532 189.616 213.516 189.136 213.492 188.696C213.467 188.249 213.435 187.866 213.394 187.549H215.835V194.202ZM227.933 187.854V185.718C227.933 185.181 227.961 184.684 228.018 184.229C228.075 183.773 228.169 183.354 228.299 182.971C227.892 182.686 227.473 182.483 227.042 182.361C226.618 182.239 226.163 182.178 225.674 182.178C225.357 182.178 225.044 182.239 224.734 182.361C224.433 182.475 224.161 182.67 223.917 182.947C223.672 183.223 223.477 183.59 223.331 184.045C223.184 184.493 223.111 185.05 223.111 185.718V187.854H227.933ZM234.28 182.91C233.971 182.682 233.625 182.503 233.243 182.373C232.868 182.243 232.502 182.178 232.144 182.178C231.827 182.178 231.546 182.235 231.302 182.349C231.058 182.454 230.854 182.629 230.691 182.874C230.529 183.118 230.403 183.435 230.313 183.826C230.232 184.208 230.191 184.676 230.191 185.229V187.854H233.487V189.624H230.191V193.958C230.191 194.552 230.195 195.142 230.203 195.728C230.219 196.305 230.24 196.859 230.264 197.388C230.297 197.917 230.337 198.405 230.386 198.853C230.435 199.3 230.492 199.683 230.557 200H227.933V189.624H223.111V193.958C223.111 194.552 223.115 195.142 223.123 195.728C223.139 196.305 223.16 196.859 223.184 197.388C223.217 197.917 223.257 198.405 223.306 198.853C223.355 199.3 223.412 199.683 223.477 200H220.853V189.624H218.411V187.854H220.853V186.084C220.853 185.075 220.975 184.204 221.219 183.472C221.463 182.731 221.801 182.121 222.232 181.641C222.663 181.16 223.172 180.806 223.758 180.579C224.344 180.343 224.983 180.225 225.674 180.225C226.374 180.225 227.021 180.326 227.615 180.53C228.217 180.733 228.75 181.018 229.214 181.384C229.939 180.611 230.915 180.225 232.144 180.225C232.624 180.225 233.096 180.302 233.56 180.457C234.024 180.603 234.447 180.811 234.83 181.079L234.28 182.91ZM244.375 189.502C244.172 189.461 243.875 189.412 243.484 189.355C243.102 189.29 242.605 189.258 241.995 189.258C241.198 189.258 240.53 189.421 239.993 189.746C239.464 190.063 239.041 190.491 238.724 191.028C238.406 191.557 238.178 192.167 238.04 192.859C237.91 193.551 237.845 194.263 237.845 194.995C237.845 195.467 237.889 195.903 237.979 196.301C238.077 196.692 238.207 197.034 238.37 197.327C238.532 197.611 238.72 197.835 238.931 197.998C239.143 198.153 239.371 198.23 239.615 198.23C239.883 198.23 240.156 198.14 240.433 197.961C240.717 197.782 240.994 197.542 241.263 197.241C241.539 196.932 241.808 196.578 242.068 196.179C242.329 195.78 242.573 195.361 242.801 194.922C243.029 194.474 243.24 194.023 243.436 193.567C243.631 193.111 243.798 192.68 243.936 192.273C244.074 191.858 244.18 191.479 244.253 191.138C244.335 190.796 244.375 190.515 244.375 190.295V189.502ZM245.291 200C245.201 199.805 245.12 199.512 245.047 199.121C244.982 198.73 244.925 198.311 244.876 197.864C244.835 197.408 244.803 196.965 244.778 196.533C244.754 196.102 244.742 195.752 244.742 195.483V194.263C244.481 194.954 244.168 195.658 243.802 196.375C243.444 197.091 243.033 197.742 242.569 198.328C242.105 198.905 241.592 199.382 241.031 199.756C240.477 200.122 239.883 200.305 239.249 200.305C238.736 200.305 238.256 200.191 237.808 199.963C237.361 199.736 236.97 199.398 236.636 198.95C236.311 198.503 236.054 197.949 235.867 197.29C235.68 196.623 235.586 195.858 235.586 194.995C235.586 194.027 235.717 193.083 235.977 192.163C236.237 191.235 236.636 190.413 237.173 189.697C237.71 188.973 238.394 188.395 239.224 187.964C240.054 187.524 241.039 187.305 242.178 187.305C242.968 187.305 243.753 187.358 244.534 187.463C245.315 187.561 246.015 187.691 246.634 187.854V193.53C246.634 195.068 246.707 196.362 246.854 197.412C247 198.454 247.191 199.316 247.427 200H245.291ZM258.169 189.868C257.974 189.795 257.767 189.73 257.547 189.673C257.327 189.608 257.103 189.555 256.875 189.514C256.648 189.473 256.424 189.441 256.204 189.417C255.993 189.392 255.793 189.38 255.606 189.38C254.939 189.38 254.369 189.518 253.897 189.795C253.425 190.063 253.038 190.422 252.737 190.869C252.444 191.309 252.229 191.809 252.09 192.371C251.952 192.932 251.883 193.502 251.883 194.08C251.883 194.836 251.94 195.467 252.054 195.972C252.176 196.468 252.339 196.867 252.542 197.168C252.754 197.461 252.998 197.673 253.274 197.803C253.559 197.925 253.868 197.986 254.202 197.986C254.511 197.986 254.841 197.925 255.191 197.803C255.541 197.673 255.891 197.489 256.241 197.253C256.599 197.017 256.941 196.724 257.266 196.375C257.6 196.025 257.901 195.626 258.169 195.178V189.868ZM260.428 199.695C260.428 200.769 260.269 201.689 259.952 202.454C259.642 203.219 259.231 203.841 258.719 204.321C258.214 204.81 257.636 205.168 256.985 205.396C256.334 205.623 255.671 205.737 254.996 205.737C254.214 205.737 253.437 205.603 252.664 205.334C251.899 205.066 251.191 204.712 250.54 204.272L251.333 202.38C251.911 202.795 252.493 203.133 253.079 203.394C253.665 203.654 254.263 203.784 254.874 203.784C255.191 203.784 255.541 203.727 255.923 203.613C256.306 203.499 256.664 203.3 256.998 203.015C257.331 202.738 257.608 202.364 257.828 201.892C258.056 201.42 258.169 200.83 258.169 200.122V197.864C257.852 198.263 257.514 198.604 257.156 198.889C256.806 199.166 256.448 199.394 256.082 199.573C255.724 199.744 255.362 199.87 254.996 199.951C254.638 200.024 254.292 200.061 253.958 200.061C253.396 200.061 252.855 199.963 252.334 199.768C251.814 199.573 251.35 199.264 250.943 198.84C250.544 198.409 250.223 197.852 249.979 197.168C249.743 196.484 249.625 195.658 249.625 194.69C249.625 193.754 249.747 192.843 249.991 191.956C250.235 191.069 250.613 190.283 251.126 189.6C251.639 188.908 252.294 188.354 253.091 187.939C253.897 187.516 254.857 187.305 255.972 187.305C256.338 187.305 256.713 187.333 257.095 187.39C257.486 187.439 257.872 187.508 258.255 187.598C258.637 187.687 259.012 187.789 259.378 187.903C259.744 188.009 260.094 188.114 260.428 188.22V199.695ZM265.506 194.08C265.53 194.796 265.64 195.418 265.835 195.947C266.039 196.476 266.312 196.916 266.653 197.266C267.003 197.607 267.41 197.864 267.874 198.035C268.346 198.206 268.859 198.291 269.412 198.291C270.201 198.291 270.975 198.201 271.731 198.022C272.488 197.843 273.241 197.526 273.99 197.07L274.234 199.084C273.803 199.304 273.379 199.491 272.964 199.646C272.549 199.801 272.134 199.927 271.719 200.024C271.304 200.122 270.881 200.191 270.45 200.232C270.027 200.281 269.579 200.305 269.107 200.305C268.326 200.305 267.581 200.171 266.873 199.902C266.165 199.626 265.542 199.223 265.005 198.694C264.468 198.157 264.041 197.493 263.724 196.704C263.406 195.915 263.248 194.999 263.248 193.958C263.248 192.948 263.382 192.037 263.65 191.223C263.927 190.401 264.318 189.701 264.822 189.124C265.327 188.538 265.941 188.09 266.666 187.781C267.39 187.463 268.204 187.305 269.107 187.305C269.774 187.305 270.364 187.386 270.877 187.549C271.39 187.703 271.833 187.923 272.208 188.208C272.582 188.485 272.895 188.81 273.147 189.185C273.4 189.559 273.599 189.962 273.746 190.393C273.9 190.824 274.01 191.276 274.075 191.748C274.14 192.212 274.173 192.672 274.173 193.127V193.604C274.173 193.807 274.169 193.966 274.161 194.08H265.506ZM268.924 189.136C268.029 189.136 267.296 189.4 266.727 189.929C266.157 190.45 265.783 191.264 265.604 192.371H271.976C271.976 191.85 271.898 191.39 271.744 190.991C271.597 190.584 271.386 190.243 271.109 189.966C270.84 189.689 270.519 189.482 270.145 189.343C269.77 189.205 269.363 189.136 268.924 189.136Z" fill="white"/>
<path d="M256.586 290.781L244.867 297.5L243.891 290.469L257.367 282.188H264.008V333.359H276.312V340H244.281V333.359H256.586V290.781ZM305.336 310.312C306.638 310.312 307.901 310.169 309.125 309.883C310.349 309.57 311.508 309.154 312.602 308.633C313.695 308.086 314.724 307.448 315.688 306.719C316.651 305.964 317.51 305.143 318.266 304.258C318.057 302.201 317.667 300.234 317.094 298.359C316.547 296.484 315.779 294.844 314.789 293.438C313.799 292.031 312.562 290.911 311.078 290.078C309.62 289.245 307.875 288.828 305.844 288.828C304.125 288.828 302.562 289.102 301.156 289.648C299.776 290.169 298.591 290.898 297.602 291.836C296.612 292.773 295.844 293.906 295.297 295.234C294.776 296.536 294.516 297.969 294.516 299.531C294.516 301.25 294.789 302.786 295.336 304.141C295.883 305.469 296.638 306.589 297.602 307.5C298.565 308.411 299.698 309.115 301 309.609C302.328 310.078 303.773 310.312 305.336 310.312ZM291.82 329.844C292.654 330.677 293.5 331.38 294.359 331.953C295.245 332.5 296.13 332.943 297.016 333.281C297.927 333.594 298.839 333.815 299.75 333.945C300.661 334.076 301.586 334.141 302.523 334.141C304.737 334.141 306.781 333.724 308.656 332.891C310.531 332.057 312.159 330.716 313.539 328.867C314.945 327.018 316.065 324.609 316.898 321.641C317.758 318.672 318.253 315.052 318.383 310.781C316.508 312.656 314.372 314.18 311.977 315.352C309.581 316.523 307.055 317.109 304.398 317.109C301.69 317.109 299.255 316.68 297.094 315.82C294.932 314.961 293.096 313.802 291.586 312.344C290.076 310.859 288.917 309.141 288.109 307.188C287.328 305.208 286.938 303.099 286.938 300.859C286.938 297.891 287.471 295.247 288.539 292.93C289.607 290.586 291.039 288.607 292.836 286.992C294.659 285.352 296.755 284.115 299.125 283.281C301.521 282.422 304.021 281.992 306.625 281.992C309.646 281.992 312.354 282.669 314.75 284.023C317.172 285.352 319.216 287.227 320.883 289.648C322.576 292.07 323.865 294.974 324.75 298.359C325.635 301.719 326.078 305.443 326.078 309.531C326.078 311.927 325.909 314.375 325.57 316.875C325.258 319.349 324.724 321.758 323.969 324.102C323.24 326.419 322.263 328.607 321.039 330.664C319.841 332.721 318.357 334.518 316.586 336.055C314.815 337.565 312.732 338.763 310.336 339.648C307.966 340.534 305.232 340.977 302.133 340.977C300.987 340.977 299.906 340.924 298.891 340.82C297.875 340.716 296.885 340.521 295.922 340.234C294.958 339.974 293.995 339.622 293.031 339.18C292.094 338.711 291.117 338.138 290.102 337.461L291.82 329.844ZM331.781 303.086H337.289C337.966 299.57 339.008 296.497 340.414 293.867C341.846 291.237 343.526 289.049 345.453 287.305C347.406 285.534 349.555 284.206 351.898 283.32C354.268 282.435 356.742 281.992 359.32 281.992C360.648 281.992 361.872 282.07 362.992 282.227C364.138 282.383 365.258 282.656 366.352 283.047C367.445 283.438 368.552 283.958 369.672 284.609C370.818 285.26 372.055 286.081 373.383 287.07L371.039 294.102C369.867 293.06 368.773 292.201 367.758 291.523C366.742 290.82 365.727 290.26 364.711 289.844C363.721 289.427 362.719 289.141 361.703 288.984C360.714 288.802 359.659 288.711 358.539 288.711C357.003 288.711 355.518 289.023 354.086 289.648C352.654 290.273 351.326 291.198 350.102 292.422C348.878 293.62 347.797 295.117 346.859 296.914C345.948 298.685 345.232 300.742 344.711 303.086H362.875L361.312 308.75H343.969C343.943 309.167 343.917 309.583 343.891 310C343.891 310.417 343.891 310.846 343.891 311.289V312.5C343.891 312.891 343.904 313.268 343.93 313.633H360.219L358.656 319.297H344.633C345.102 321.562 345.766 323.62 346.625 325.469C347.484 327.292 348.513 328.854 349.711 330.156C350.935 331.432 352.315 332.422 353.852 333.125C355.388 333.802 357.081 334.141 358.93 334.141C361.352 334.141 363.643 333.529 365.805 332.305C367.992 331.055 370.128 329.388 372.211 327.305L373.773 334.922C371.612 336.953 369.216 338.477 366.586 339.492C363.956 340.482 361.013 340.977 357.758 340.977C354.945 340.977 352.367 340.482 350.023 339.492C347.68 338.503 345.609 337.07 343.812 335.195C342.042 333.32 340.57 331.042 339.398 328.359C338.227 325.677 337.406 322.656 336.938 319.297H330.219L331.781 313.633H336.469V312.266C336.469 311.068 336.508 309.896 336.586 308.75H330.219L331.781 303.086Z" fill="#656060"/>
<defs>
<filter id="filter0_d_18_33" x="0" y="0" width="376" height="376" filterUnits="userSpaceOnUse" color-interpolation-filters="sRGB">
<feFlood flood-opacity="0" result="BackgroundImageFix"/>
<feColorMatrix in="SourceAlpha" type="matrix" values="0 0 0 0 0 0 0 0 0 0 0 0 0 0 0 0 0 0 127 0" result="hardAlpha"/>
<feMorphology radius="4" operator="dilate" in="SourceAlpha" result="effect1_dropShadow_18_33"/>
<feOffset dx="4" dy="4"/>
<feGaussianBlur stdDeviation="2"/>
<feComposite in2="hardAlpha" operator="out"/>
<feColorMatrix type="matrix" values="0 0 0 0 0 0 0 0 0 0 0 0 0 0 0 0 0 0 0.25 0"/>
<feBlend mode="normal" in2="BackgroundImageFix" result="effect1_dropShadow_18_33"/>
<feBlend mode="normal" in="SourceGraphic" in2="effect1_dropShadow_18_33" result="shape"/>
</filter>
<filter id="filter1_d_18_33" x="216" y="221" width="188" height="188" filterUnits="userSpaceOnUse" color-interpolation-filters="sRGB">
<feFlood flood-opacity="0" result="BackgroundImageFix"/>
<feColorMatrix in="SourceAlpha" type="matrix" values="0 0 0 0 0 0 0 0 0 0 0 0 0 0 0 0 0 0 127 0" result="hardAlpha"/>
<feOffset dx="4" dy="4"/>
<feGaussianBlur stdDeviation="2"/>
<feComposite in2="hardAlpha" operator="out"/>
<feColorMatrix type="matrix" values="0 0 0 0 0 0 0 0 0 0 0 0 0 0 0 0 0 0 0.25 0"/>
<feBlend mode="normal" in2="BackgroundImageFix" result="effect1_dropShadow_18_33"/>
<feBlend mode="normal" in="SourceGraphic" in2="effect1_dropShadow_18_33" result="shape"/>
</filter>
</defs>
</svg>
